:FULLY-SPECIFIED
:FORCE-ALL-JOINTS-BE-3DOF
:DEGREES
612
root -4.43777 15.5938 -40.5205 353.988 -73.5489 371.754
lfemur -5.08782 12.0081 -13.8151
ltibia 43.9113 0 0
lfoot -22.378 28.9709 0
ltoes -23.2016 0 0
rfemur -45.3784 -29.4516 14.7747
rtibia 75.1025 0 0
rfoot -12.4206 -12.3413 0
rtoes -4.18634 0 0
lowerback 11.7852 4.57188 -6.23019
upperback -2.07412 5.08663 -0.851881
thorax -9.32072 2.74701 1.58278
lowerneck 1.67572 -10.9227 -11.9531
upperneck -1.21993 -14.8332 11.1247
head 1.09705 -7.4487 4.93384
lclavicle -3.54512e-14 2.72496e-15 0
lhumerus -71.9257 -22.6798 104.74
lradius 102.504 0 0
lwrist 58.0461 0 0
lhand 7.08685 56.9852 0
lfingers 7.12502 0 0
lthumb 32.3528 84.0632 0
rclavicle -3.54512e-14 2.72496e-15 0
rhumerus 23.1731 16.3286 -47.0592
rradius 80.3467 0 0
rwrist -19.4394 0 0
rhand -22.2286 -35.2956 0
rfingers 7.12502 0 0
rthumb 4.18617 -65.1685 0
613
root -4.37684 15.6191 -40.4796 354.732 -74.0383 371.334
lfemur -5.88904 12.3008 -14.4741
ltibia 43.9744 0 0
lfoot -22.2979 29.1936 0
ltoes -23.4284 0 0
rfemur -44.3845 -30.1638 15.6556
rtibia 76.061 0 0
rfoot -13.1046 -14.0479 0
rtoes -3.93889 0 0
lowerback 11.4568 4.66263 -6.33927
upperback -2.25413 5.1992 -0.975365
thorax -9.33926 2.80798 1.49918
lowerneck 1.56523 -10.8709 -11.9355
upperneck -1.07313 -14.7611 11.2459
head 1.15836 -7.4119 4.95751
lclavicle -4.17062e-14 2.5446e-15 0
lhumerus -71.9842 -22.9817 104.849
lradius 102.447 0 0
lwrist 57.6019 0 0
lhand 7.22122 56.9536 0
lfingers 7.12502 0 0
lthumb 32.4817 84.0152 0
rclavicle -4.17062e-14 2.5446e-15 0
rhumerus 24.0928 16.5333 -47.0295
rradius 84.9133 0 0
rwrist -21.8825 0 0
rhand -22.9715 -35.2431 0
rfingers 7.12502 0 0
rthumb 3.46918 -65.14 0
614
root -4.31591 15.6445 -40.4388 355.53 -74.5615 370.887
lfemur -6.74662 12.6155 -15.1846
ltibia 44.0293 0 0
lfoot -22.2162 29.4357 0
ltoes -23.6644 0 0
rfemur -43.3233 -30.9244 16.5968
rtibia 77.0861 0 0
rfoot -13.8376 -15.883 0
rtoes -3.6902 0 0
lowerback 11.1026 4.76151 -6.45242
upperback -2.44796 5.32285 -1.10794
thorax -9.35902 2.87463 1.40649
lowerneck 1.45219 -10.8156 -11.9149
upperneck -0.929331 -14.6837 11.3754
head 1.21899 -7.37247 4.98334
lclavicle -4.83916e-14 2.36149e-15 0
lhumerus -72.0457 -23.313 104.971
lradius 102.385 0 0
lwrist 57.1079 0 0
lhand 7.38749 56.9255 0
lfingers 7.12502 0 0
lthumb 32.6411 83.9667 0
rclavicle -4.83916e-14 2.36149e-15 0
rhumerus 25.0851 16.7668 -46.9854
rradius 89.7905 0 0
rwrist -24.4905 0 0
rhand -23.7538 -35.2036 0
rfingers 7.12502 0 0
rthumb 2.71412 -65.1259 0
615
root -4.25497 15.6698 -40.3979 356.386 -75.1195 370.415
lfemur -7.66256 12.9529 -15.9487
ltibia 44.0754 0 0
lfoot -22.1328 29.6977 0
ltoes -23.9097 0 0
rfemur -42.1928 -31.735 17.6005
rtibia 78.1804 0 0
rfoot -14.6214 -17.8514 0
rtoes -3.44071 0 0
lowerback 10.7216 4.86888 -6.56968
upperback -2.65612 5.45808 -1.24995
thorax -9.38004 2.94719 1.30431
lowerneck 1.33667 -10.7565 -11.8914
upperneck -0.78904 -14.6007 11.5136
head 1.27876 -7.33032 5.01141
lclavicle -5.55226e-14 2.17584e-15 0
lhumerus -72.1103 -23.6752 105.106
lradius 102.318 0 0
lwrist 56.5616 0 0
lhand 7.58748 56.9011 0
lfingers 7.12502 0 0
lthumb 32.8329 83.9178 0
rclavicle -5.55226e-14 2.17584e-15 0
rhumerus 26.1528 17.0306 -46.9258
rradius 94.9888 0 0
rwrist -27.269 0 0
rhand -24.5766 -35.1781 0
rfingers 7.12502 0 0
rthumb 1.92001 -65.127 0
616
root -4.19404 15.6951 -40.3571 357.301 -75.7136 369.916
lfemur -8.63886 13.314 -16.7685
ltibia 44.112 0 0
lfoot -22.0479 29.9806 0
ltoes -24.1644 0 0
rfemur -40.9905 -32.5974 18.6687
rtibia 79.3461 0 0
rfoot -15.4578 -19.9581 0
rtoes -3.19088 0 0
lowerback 10.3128 4.98507 -6.69108
upperback -2.87916 5.60538 -1.40172
thorax -9.40235 3.02593 1.1922
lowerneck 1.21875 -10.6936 -11.8647
upperneck -0.652777 -14.5121 11.6607
head 1.3375 -7.28534 5.04183
lclavicle -6.31141e-14 1.98785e-15 0
lhumerus -72.178 -24.0693 105.256
lradius 102.244 0 0
lwrist 55.9607 0 0
lhand 7.82303 56.8809 0
lfingers 7.12502 0 0
lthumb 33.0588 83.8687 0
rclavicle -6.31141e-14 1.98785e-15 0
rhumerus 27.2987 17.326 -46.8499
rradius 100.519 0 0
rwrist -30.2236 0 0
rhand -25.4408 -35.1675 0
rfingers 7.12502 0 0
rthumb 1.08587 -65.1445 0
617
root -4.25538 15.6883 -40.337 358.713 -75.8172 368.5
lfemur -9.43426 13.3421 -16.8687
ltibia 44.5173 0 0
lfoot -21.8609 29.6479 0
ltoes -24.0873 0 0
rfemur -40.4549 -32.6031 18.8986
rtibia 79.1956 0 0
rfoot -15.6808 -20.3561 0
rtoes -3.30179 0 0
lowerback 10.3206 4.9638 -6.57157
upperback -2.89658 5.60305 -1.35918
thorax -9.42094 3.01923 1.17106
lowerneck 1.16092 -10.5959 -11.792
upperneck -0.589641 -14.3787 11.6155
head 1.34946 -7.21783 5.01966
lclavicle -6.35023e-14 1.51014e-15 0
lhumerus -71.0585 -24.14 104.927
lradius 102.015 0 0
lwrist 55.2769 0 0
lhand 7.71845 56.5044 0
lfingers 7.12502 0 0
lthumb 32.9589 83.5092 0
rclavicle -6.35023e-14 1.51014e-15 0
rhumerus 27.4212 17.4102 -47.0805
rradius 101.437 0 0
rwrist -30.815 0 0
rhand -25.1785 -34.8365 0
rfingers 7.12502 0 0
rthumb 1.33716 -64.7791 0
618
root -4.31673 15.6814 -40.317 359.923 -75.9055 367.286
lfemur -10.1156 13.3659 -16.9539
ltibia 44.8649 0 0
lfoot -21.7007 29.3623 0
ltoes -24.0208 0 0
rfemur -39.9968 -32.607 19.0946
rtibia 79.0653 0 0
rfoot -15.8712 -20.6953 0
rtoes -3.3974 0 0
lowerback 10.3278 4.94545 -6.46887
upperback -2.91129 5.60093 -1.32253
thorax -9.43686 3.01341 1.153
lowerneck 1.1115 -10.5122 -11.7296
upperneck -0.535779 -14.2643 11.5765
head 1.35959 -7.15995 5.00062
lclavicle -6.38269e-14 1.10065e-15 0
lhumerus -70.098 -24.2004 104.644
lradius 101.82 0 0
lwrist 54.6907 0 0
lhand 7.62874 56.1815 0
lfingers 7.12502 0 0
lthumb 32.8732 83.2009 0
rclavicle -6.38269e-14 1.10065e-15 0
rhumerus 27.5252 17.4823 -47.2783
rradius 102.218 0 0
rwrist -31.3191 0 0
rhand -24.9524 -34.5527 0
rfingers 7.12502 0 0
rthumb 1.55379 -64.4658 0
619
root -4.37807 15.6746 -40.2969 360.953 -75.9793 366.252
lfemur -10.6939 13.3853 -17.0247
ltibia 45.1607 0 0
lfoot -21.5644 29.1182 0
ltoes -23.9634 0 0
rfemur -39.6092 -32.6084 19.2592
rtibia 78.9515 0 0
rfoot -16.0316 -20.9797 0
rtoes -3.47985 0 0
lowerback 10.3347 4.92959 -6.38097
upperback -2.92335 5.59886 -1.29096
thorax -9.45037 3.0083 1.1378
lowerneck 1.06978 -10.4411 -11.6765
upperneck -0.490517 -14.167 11.5429
head 1.36797 -7.11074 4.98433
lclavicle -6.40858e-14 7.52336e-16 0
lhumerus -69.2792 -24.2511 104.403
lradius 101.653 0 0
lwrist 54.1921 0 0
lhand 7.55228 55.9065 0
lfingers 7.12502 0 0
lthumb 32.8002 82.9383 0
rclavicle -6.40858e-14 7.52336e-16 0
rhumerus 27.6113 17.5434 -47.4468
rradius 102.871 0 0
rwrist -31.7416 0 0
rhand -24.7574 -34.3113 0
rfingers 7.12502 0 0
rthumb 1.74064 -64.1992 0
620
root -4.43942 15.6678 -40.2768 361.822 -76.0396 365.378
lfemur -11.1806 13.4005 -17.0819
ltibia 45.4108 0 0
lfoot -21.4494 28.9105 0
ltoes -23.9136 0 0
rfemur -39.2852 -32.6062 19.3947
rtibia 78.8506 0 0
rfoot -16.1645 -21.2134 0
rtoes -3.55129 0 0
lowerback 10.342 4.91578 -6.30588
upperback -2.93279 5.59669 -1.26365
thorax -9.46174 3.00374 1.1252
lowerneck 1.03506 -10.3809 -11.6315
upperneck -0.453177 -14.0849 11.514
head 1.37466 -7.06918 4.97043
lclavicle -6.42768e-14 4.5818e-16 0
lhumerus -68.5849 -24.293 104.198
lradius 101.511 0 0
lwrist 53.7709 0 0
lhand 7.48749 55.6737 0
lfingers 7.12502 0 0
lthumb 32.7383 82.7161 0
rclavicle -6.42768e-14 4.5818e-16 0
rhumerus 27.6804 17.5946 -47.5893
rradius 103.404 0 0
rwrist -32.0886 0 0
rhand -24.5884 -34.1074 0
rfingers 7.12502 0 0
rthumb 1.90258 -63.9738 0
621
root -4.50076 15.6609 -40.2568 362.552 -76.0874 364.642
lfemur -11.5867 13.4116 -17.1262
ltibia 45.6212 0 0
lfoot -21.3528 28.7337 0
ltoes -23.8697 0 0
rfemur -39.0179 -32.5998 19.5034
rtibia 78.7593 0 0
rfoot -16.2724 -21.4002 0
rtoes -3.61388 0 0
lowerback 10.3502 4.9036 -6.24159
upperback -2.93965 5.59425 -1.23979
thorax -9.47123 2.99954 1.11496
lowerneck 1.00663 -10.3305 -11.5935
upperneck -0.423084 -14.0159 11.4887
head 1.37973 -7.0343 4.95855
lclavicle -6.43977e-14 2.1115e-16 0
lhumerus -67.9978 -24.3268 104.025
lradius 101.392 0 0
lwrist 53.4171 0 0
lhand 7.43275 55.4773 0
lfingers 7.12502 0 0
lthumb 32.686 82.5287 0
rclavicle -6.43977e-14 2.1115e-16 0
rhumerus 27.7332 17.6372 -47.7095
rradius 103.824 0 0
rwrist -32.3659 0 0
rhand -24.4404 -33.9361 0
rfingers 7.12502 0 0
rthumb 2.04451 -63.7841 0
622
root -4.56211 15.6541 -40.2367 363.163 -76.1237 364.023
lfemur -11.9234 13.4185 -17.1583
ltibia 45.7981 0 0
lfoot -21.272 28.5823 0
ltoes -23.8303 0 0
rfemur -38.8003 -32.5882 19.5879
rtibia 78.6738 0 0
rfoot -16.358 -21.5442 0
rtoes -3.66977 0 0
lowerback 10.3598 4.89262 -6.18608
upperback -2.94399 5.5914 -1.21858
thorax -9.47909 2.99555 1.10685
lowerneck 0.983785 -10.2882 -11.5614
upperneck -0.399561 -13.9582 11.4662
head 1.38324 -7.00511 4.94833
lclavicle -6.44464e-14 4.21585e-18 0
lhumerus -67.5006 -24.3532 103.877
lradius 101.292 0 0
lwrist 53.1206 0 0
lhand 7.38646 55.3118 0
lfingers 7.12502 0 0
lthumb 32.6418 82.3707 0
rclavicle -6.44464e-14 4.21585e-18 0
rhumerus 27.7704 17.6722 -47.8108
rradius 104.141 0 0
rwrist -32.5794 0 0
rhand -24.3081 -33.7924 0
rfingers 7.12502 0 0
rthumb 2.17131 -63.6247 0
623
root -4.62345 15.6472 -40.2166 363.677 -76.1494 363.501
lfemur -12.2019 13.4213 -17.1791
ltibia 45.9474 0 0
lfoot -21.2043 28.4512 0
ltoes -23.7939 0 0
rfemur -38.6256 -32.5706 19.6504
rtibia 78.5907 0 0
rfoot -16.4237 -21.6493 0
rtoes -3.7211 0 0
lowerback 10.3712 4.8824 -6.13737
upperback -2.94585 5.58797 -1.19921
thorax -9.48559 2.99158 1.10061
lowerneck 0.965826 -10.2528 -11.5342
upperneck -0.381933 -13.9097 11.4458
head 1.38525 -6.9806 4.93939
lclavicle -6.44207e-14 -1.69651e-16 0
lhumerus -67.0759 -24.373 103.751
lradius 101.207 0 0
lwrist 52.8714 0 0
lhand 7.34701 55.1714 0
lfingers 7.12502 0 0
lthumb 32.6041 82.2367 0
rclavicle -6.44207e-14 -1.69651e-16 0
rhumerus 27.7929 17.7008 -47.8967
rradius 104.361 0 0
rwrist -32.7349 0 0
rhand -24.1867 -33.6716 0
rfingers 7.12502 0 0
rthumb 2.28786 -63.4902 0
624
root -4.6848 15.6404 -40.1966 364.113 -76.1654 363.053
lfemur -12.4335 13.4202 -17.1891
ltibia 46.0752 0 0
lfoot -21.1468 28.3348 0
ltoes -23.7589 0 0
rfemur -38.4868 -32.5462 19.6934
rtibia 78.5064 0 0
rfoot -16.4721 -21.7196 0
rtoes -3.77002 0 0
lowerback 10.3852 4.87251 -6.09343
upperback -2.94526 5.58382 -1.18087
thorax -9.49099 2.98747 1.09602
lowerneck 0.952045 -10.2226 -11.5106
upperneck -0.369522 -13.8685 11.4265
head 1.38584 -6.9598 4.93137
lclavicle -6.43183e-14 -3.1748e-16 0
lhumerus -66.7066 -24.3871 103.64
lradius 101.134 0 0
lwrist 52.6593 0 0
lhand 7.3128 55.0504 0
lfingers 7.12502 0 0
lthumb 32.5714 82.1212 0
rclavicle -6.43183e-14 -3.1748e-16 0
rhumerus 27.8013 17.7241 -47.9706
rradius 104.493 0 0
rwrist -32.8383 0 0
rhand -24.0708 -33.5687 0
rfingers 7.12502 0 0
rthumb 2.39904 -63.3751 0
